REM MD5 a753b148639ed272de6d7719d59ffeb9
FILE "McDonald's - Demo 03 (Europe).bin" BINARY
  TRACK 01 MODE2/2352
    INDEX 01 00:00:00
  TRACK 02 AUDIO
    INDEX 00 12:41:04
    INDEX 01 12:43:04
  TRACK 03 AUDIO
    INDEX 00 14:22:69
    INDEX 01 14:24:69
  TRACK 04 AUDIO
    INDEX 00 16:13:20
    INDEX 01 16:15:20
  TRACK 05 AUDIO
    INDEX 00 20:35:73
    INDEX 01 20:37:73
REM LEADOUT 23:39:30
